<?xml version="1.0" standalone="no"?>
<!DOCTYPE svg PUBLIC "-//W3C//DTD SVG 20010904//EN"
 "http://www.w3.org/TR/2001/REC-SVG-20010904/DTD/svg10.dtd">
<svg version="1.0" xmlns="http://www.w3.org/2000/svg"
 width="776.000000pt" height="1068.000000pt" viewBox="0 0 776.000000 1068.000000"
 preserveAspectRatio="xMidYMid meet">

<g transform="translate(0.000000,1068.000000) scale(0.100000,-0.100000)"
fill="#000000" stroke="none">
<path d="M4285 10420 c-4 -6 -23 -10 -43 -9 -20 1 -41 0 -47 -1 -5 -2 -18 0
-29 5 -22 10 -38 -12 -26 -35 10 -19 2 -60 -11 -60 -4 0 -12 7 -17 17 -7 11
-21 16 -46 15 -25 -1 -42 5 -54 18 -22 27 -48 25 -78 -5 -14 -14 -29 -25 -34
-25 -6 0 -10 -4 -10 -10 0 -5 -9 -10 -20 -10 -11 0 -20 -7 -20 -15 0 -9 -6
-12 -15 -9 -10 4 -15 0 -15 -12 0 -17 -2 -17 -18 3 -13 17 -30 22 -80 25 -34
2 -63 0 -65 -4 -1 -4 -15 -7 -32 -8 -16 0 -56 0 -89 0 -32 0 -63 -3 -68 -6
-16 -10 15 -24 39 -17 14 3 23 1 23 -6 0 -6 -3 -10 -7 -10 -24 4 -34 -3 -29
-19 6 -16 0 -17 -91 -8 -93 9 -98 8 -111 -13 -8 -11 -19 -21 -24 -21 -5 0 -31
-21 -58 -46 -26 -25 -82 -67 -125 -94 -42 -27 -84 -55 -93 -63 -10 -8 -42 -26
-73 -41 -56 -26 -151 -92 -158 -109 -2 -5 -15 -19 -29 -31 -14 -11 -37 -32
-51 -46 -14 -14 -39 -35 -56 -48 -70 -54 -138 -119 -152 -147 -9 -16 -43 -60
-76 -97 -34 -37 -70 -84 -81 -105 -12 -21 -31 -49 -44 -63 -13 -14 -35 -50
-49 -80 -15 -30 -35 -64 -45 -74 -10 -11 -18 -25 -18 -32 0 -6 -7 -17 -15 -24
-8 -7 -20 -31 -26 -54 -18 -66 -52 -159 -70 -191 -16 -28 -49 -132 -64 -198
-3 -16 -7 -67 -9 -115 -3 -96 -18 -147 -76 -267 -55 -115 -70 -151 -70 -169 0
-8 -9 -34 -21 -56 -19 -37 -28 -128 -17 -182 2 -7 -3 -12 -9 -11 -15 3 -16 -6
-4 -25 6 -11 14 -8 36 13 41 37 61 30 57 -22 -2 -22 1 -44 7 -48 15 -8 14 -65
0 -65 -8 0 -8 -5 1 -15 14 -17 17 -42 30 -250 16 -261 17 -366 4 -373 -6 -4
-14 -18 -17 -32 -12 -53 -32 -100 -43 -100 -5 0 -20 -17 -31 -37 -19 -35 -20
-45 -11 -113 13 -103 12 -122 -6 -132 -14 -8 -14 -12 -2 -31 12 -18 13 -37 4
-104 -11 -88 -6 -125 15 -104 6 6 12 25 13 41 1 16 9 37 19 46 16 16 18 16 27
1 5 -9 16 -17 24 -17 13 0 14 -16 8 -117 -5 -65 -8 -129 -7 -143 8 -112 24
-270 35 -340 l14 -85 7 55 c4 30 8 78 10 105 2 45 3 47 11 20 16 -61 16 -62
27 -43 5 9 9 36 10 60 0 24 3 65 6 91 4 39 7 46 19 36 20 -17 27 8 21 85 -2
36 0 67 5 68 5 2 10 43 10 90 0 48 4 124 9 170 25 220 64 475 79 513 4 11 15
56 25 100 10 44 25 103 35 130 10 28 21 70 25 95 4 25 15 61 25 80 9 19 23 61
30 93 7 31 17 57 22 57 5 0 8 10 7 23 -1 12 3 33 8 47 6 14 16 43 24 65 7 22
17 44 21 50 4 5 8 17 8 27 0 18 3 26 34 85 9 17 16 41 16 53 0 12 6 36 13 53
13 30 39 119 57 197 10 45 37 108 61 142 11 14 19 38 19 52 0 29 19 76 32 76
4 0 8 4 8 10 0 5 18 39 40 75 22 36 40 68 40 71 0 2 8 14 18 25 10 10 34 49
52 86 19 37 51 84 72 105 21 21 38 40 38 43 0 7 32 45 67 79 17 17 44 51 60
77 27 44 47 59 49 39 1 -5 2 -17 3 -26 2 -22 21 -7 21 17 0 10 5 19 11 19 7 0
9 10 7 25 -3 14 -1 25 4 25 5 0 6 4 3 10 -4 6 1 7 11 3 23 -9 53 34 54 77 0
19 4 40 8 47 12 19 83 64 92 58 16 -10 40 8 40 30 0 13 7 26 16 29 12 4 15 2
10 -9 -3 -8 -3 -22 0 -30 5 -12 11 -10 31 12 24 25 24 27 7 40 -15 11 -16 13
-2 13 9 0 18 -6 21 -12 6 -18 51 25 89 84 17 26 39 50 50 53 10 4 19 11 19 16
1 5 2 14 3 20 1 12 37 34 78 48 25 9 26 12 17 46 -12 41 0 65 32 65 11 0 19 9
21 23 2 15 10 22 28 24 30 1 100 -19 100 -29 0 -5 12 -8 27 -8 l27 0 -22 16
c-32 22 -27 34 10 23 21 -5 36 -5 42 1 18 18 35 11 51 -20 18 -36 40 -40 31
-7 -3 14 3 36 15 57 20 31 22 33 34 17 10 -14 14 -15 18 -5 3 10 8 11 26 1 11
-7 26 -13 32 -13 7 0 18 -8 25 -17 12 -17 13 -16 14 4 0 27 10 53 20 53 4 0
13 -13 19 -30 5 -16 15 -30 20 -30 6 0 11 -9 11 -20 0 -11 5 -20 10 -20 6 0
10 6 9 13 -4 29 2 57 11 57 6 0 10 -7 10 -15 0 -8 6 -15 13 -15 22 0 37 23 37
56 0 18 5 36 10 39 6 4 10 -7 10 -24 0 -17 5 -31 10 -31 6 0 10 11 10 25 0 14
5 25 10 25 6 0 10 -19 10 -42 l0 -43 19 24 c12 16 21 20 25 12 4 -6 2 -11 -3
-11 -6 0 -11 -7 -11 -15 0 -8 6 -12 14 -9 9 3 16 -6 21 -28 8 -31 8 -31 12 -8
7 37 23 49 23 17 0 -31 19 -36 27 -7 11 42 30 12 24 -37 -3 -21 30 -14 36 7 9
36 24 21 17 -16 -5 -28 -4 -35 5 -29 7 4 18 -1 27 -11 13 -18 14 -18 20 4 8
26 4 26 41 7 35 -18 59 -42 49 -52 -3 -3 -6 -1 -6 6 0 7 -4 9 -10 6 -5 -3 -10
-12 -10 -19 0 -16 37 -28 46 -15 8 14 34 11 29 -3 -4 -9 6 -14 26 -15 39 -3
45 -8 29 -28 -10 -12 -10 -15 3 -15 8 0 17 4 19 9 2 4 13 11 25 15 18 6 22 4
17 -8 -5 -12 0 -16 20 -16 14 0 26 -4 26 -9 0 -5 16 -12 36 -15 21 -4 34 -12
31 -19 -2 -7 5 -22 17 -35 17 -19 18 -24 6 -32 -10 -6 -20 -4 -31 6 -20 18
-39 18 -39 0 0 -24 30 -40 71 -38 21 2 39 -2 39 -7 0 -5 10 -13 23 -16 47 -15
87 -38 87 -51 0 -7 9 -18 20 -24 11 -6 20 -15 20 -20 0 -6 14 -24 32 -40 23
-23 38 -30 55 -26 15 4 25 0 32 -11 6 -10 11 -12 11 -5 0 14 30 17 30 2 0 -5
6 -10 13 -10 6 0 18 -13 25 -30 8 -16 20 -30 28 -30 8 0 19 -11 24 -25 7 -19
17 -25 39 -25 30 0 53 -23 44 -46 -2 -5 8 -21 22 -34 14 -13 25 -29 25 -36 0
-6 7 -15 16 -18 10 -4 14 -12 10 -22 -4 -11 1 -18 15 -21 12 -4 18 -11 15 -20
-3 -8 -2 -12 3 -9 10 7 22 -45 21 -94 -1 -19 7 -51 17 -71 14 -29 23 -37 42
-36 17 1 26 -4 29 -15 2 -13 -1 -16 -12 -12 -12 5 -16 0 -16 -20 0 -19 5 -26
20 -26 11 0 20 -4 20 -10 0 -5 -7 -10 -15 -10 -8 0 -15 -5 -15 -10 0 -6 11 -8
25 -6 18 3 25 0 25 -10 0 -11 -6 -13 -20 -9 -14 5 -20 2 -20 -9 0 -18 -15 -21
-25 -6 -7 12 -35 14 -35 3 0 -5 16 -19 35 -33 19 -14 37 -32 40 -41 8 -23 -4
-49 -23 -49 -13 0 -12 -3 4 -15 19 -15 19 -15 0 -30 -17 -13 -17 -15 -4 -15 9
0 20 5 23 10 3 6 11 10 16 10 6 0 3 -7 -5 -16 -9 -8 -16 -26 -16 -38 0 -13 -9
-31 -20 -41 -11 -10 -20 -28 -20 -40 0 -13 -7 -28 -16 -36 -8 -7 -13 -21 -11
-30 3 -12 -4 -24 -20 -35 -22 -14 -25 -21 -20 -56 4 -28 1 -41 -9 -45 -18 -7
-18 -29 1 -37 20 -7 19 -26 -1 -26 -9 0 -14 -6 -11 -12 3 -9 20 -12 50 -10 45
3 148 -25 169 -46 7 -7 3 -17 -11 -31 -12 -12 -21 -27 -21 -35 0 -28 20 -66
34 -66 21 0 48 -30 42 -47 -7 -17 14 -53 31 -53 12 0 53 -51 53 -67 0 -13
-113 -8 -140 7 -14 7 -38 13 -54 12 -16 -2 -33 3 -37 10 -11 17 -90 10 -105
-10 -10 -14 -13 -14 -35 1 -31 22 -60 22 -52 1 5 -15 1 -16 -31 -10 -36 7 -37
6 -31 -16 3 -13 3 -18 -2 -13 -18 22 -126 7 -148 -20 -13 -17 -113 -27 -153
-16 -27 8 -34 6 -47 -12 l-16 -22 -17 21 -18 21 -17 -24 c-12 -15 -28 -23 -47
-23 -25 0 -105 -33 -120 -49 -14 -16 -53 -31 -80 -31 -23 0 -30 -4 -30 -20 0
-11 -4 -20 -9 -20 -15 0 -72 -97 -66 -112 4 -9 -1 -18 -9 -21 -9 -4 -16 -16
-16 -27 0 -11 -6 -19 -12 -18 -8 2 -14 -8 -15 -22 -4 -64 -8 -92 -14 -96 -4
-2 -3 -19 2 -36 5 -18 8 -81 7 -141 -1 -78 3 -111 12 -117 10 -6 9 -9 -1 -12
-11 -4 -11 -8 -2 -19 7 -9 14 -54 15 -107 2 -51 4 -92 4 -92 1 0 14 6 30 14
27 15 64 7 64 -14 0 -5 8 -11 18 -14 11 -4 25 -17 32 -30 18 -35 69 -69 104
-70 17 -1 37 -5 44 -10 8 -5 20 0 32 14 15 17 25 20 54 14 25 -4 36 -3 36 6 0
7 -7 10 -15 6 -8 -3 -15 -1 -15 4 0 6 15 11 33 11 l32 1 -30 7 c-19 4 -26 9
-18 14 14 9 93 -21 93 -35 0 -6 -13 -7 -31 -3 -28 6 -30 5 -20 -13 11 -20 45
-20 57 -1 7 12 34 11 34 -1 0 -5 -8 -10 -17 -10 -13 0 -11 -4 7 -13 20 -11 26
-11 28 0 2 7 7 13 12 13 15 0 39 -30 34 -43 -2 -7 5 -18 16 -25 12 -7 20 -8
20 -2 0 16 17 12 47 -14 25 -20 93 -43 116 -37 5 1 20 -5 35 -13 15 -9 74 -23
132 -31 66 -10 108 -21 113 -30 4 -8 24 -17 45 -21 20 -3 47 -13 60 -21 24
-14 85 -10 109 9 8 6 25 6 49 -2 28 -10 41 -10 60 0 21 12 26 10 43 -11 11
-13 20 -34 21 -46 0 -14 7 -23 22 -25 14 -2 22 -12 25 -27 2 -14 10 -32 18
-41 8 -9 15 -31 15 -48 0 -25 -4 -32 -19 -32 -19 0 -35 -25 -26 -40 3 -5 -3
-15 -13 -22 -10 -7 -24 -23 -31 -35 -7 -13 -17 -20 -26 -17 -21 8 -73 -17 -78
-38 -3 -10 -11 -18 -19 -18 -10 0 -10 2 2 10 12 8 12 10 -2 15 -27 10 -40 -4
-33 -35 5 -21 2 -31 -12 -39 -17 -10 -16 -12 7 -30 22 -18 23 -23 13 -40 -18
-29 -16 -40 7 -34 11 3 20 1 20 -5 0 -22 -13 -42 -26 -42 -8 0 -14 -4 -14 -9
0 -5 -24 -34 -52 -64 -53 -54 -122 -154 -124 -179 0 -7 -2 -21 -2 -30 -1 -12
-10 -18 -26 -18 -19 0 -28 -8 -37 -35 -9 -23 -19 -35 -31 -35 -11 0 -23 -11
-28 -25 -6 -15 -17 -25 -30 -25 -13 0 -24 -10 -30 -25 -8 -22 -15 -25 -47 -23
-31 2 -38 0 -37 -15 2 -13 -3 -16 -17 -12 -25 8 -46 -4 -28 -16 10 -6 3 -9
-19 -9 -28 0 -32 -3 -27 -19 4 -13 -2 -25 -21 -40 -15 -12 -22 -21 -15 -21 23
0 10 -19 -16 -22 -17 -2 -29 -10 -33 -23 -3 -11 -13 -35 -23 -53 -18 -33 -19
-34 -70 -27 -55 7 -127 46 -127 69 0 7 -7 19 -14 26 -8 6 -22 33 -30 58 -21
65 -55 163 -65 187 -19 43 -51 131 -57 157 l-6 28 -46 -40 c-48 -43 -65 -40
-55 10 6 35 -11 48 -83 61 -32 7 -64 18 -71 26 -7 10 -20 12 -35 8 -18 -5 -20
-4 -8 4 13 10 13 11 0 12 -8 1 -25 0 -36 0 -12 -1 -24 5 -28 16 -6 14 -9 15
-16 4 -11 -18 13 -43 33 -35 8 3 18 0 22 -6 5 -8 -2 -11 -21 -9 -16 2 -38 -3
-49 -9 -19 -12 -18 -13 4 -6 l24 6 -19 -25 c-19 -25 -118 -107 -129 -107 -4 0
-13 -7 -21 -15 -9 -8 -27 -16 -42 -16 -15 -1 -39 -2 -54 -3 -22 -2 -34 7 -58
41 -17 23 -57 62 -89 87 -64 50 -125 66 -223 58 -50 -3 -63 -9 -92 -38 -19
-19 -36 -45 -38 -57 -2 -15 -10 -22 -25 -21 -21 0 -22 -3 -16 -40 8 -54 20
-86 33 -86 5 0 10 -6 10 -14 0 -20 74 -56 118 -56 20 -1 48 -7 62 -15 14 -8
34 -14 45 -15 11 0 47 -28 80 -63 52 -54 130 -122 221 -192 l26 -20 -42 -28
c-35 -23 -53 -27 -109 -27 -47 0 -74 5 -91 17 -14 10 -29 19 -35 20 -67 17
-88 17 -194 1 -64 -10 -152 -28 -196 -39 -44 -12 -102 -24 -130 -28 -27 -4
-59 -12 -71 -19 -13 -7 -44 -9 -80 -6 -32 3 -92 7 -131 8 -63 3 -73 1 -78 -15
-4 -11 -14 -19 -23 -19 -18 0 -52 -33 -52 -50 0 -6 -6 -21 -14 -33 -18 -29
-10 -89 15 -116 23 -25 83 -28 126 -7 60 29 100 40 168 42 88 4 101 6 150 28
58 26 232 33 310 13 257 -67 338 -93 418 -134 17 -9 41 -13 57 -10 43 9 94 -3
126 -29 23 -18 26 -25 15 -33 -7 -5 -9 -10 -4 -12 5 -2 3 -15 -5 -29 -12 -22
-13 -23 -9 -3 4 18 2 20 -12 11 -9 -5 -16 -22 -16 -37 0 -19 -5 -26 -20 -26
-14 0 -19 6 -17 19 3 16 2 17 -10 5 -7 -8 -18 -23 -24 -34 -13 -23 -65 -38
-111 -33 -18 2 -33 1 -33 -3 0 -13 -114 -23 -118 -10 -2 6 -19 11 -37 11 -19
0 -55 7 -81 16 -25 8 -57 13 -70 10 -14 -4 -24 -2 -24 4 0 5 -12 10 -27 10
-14 0 -24 3 -20 6 12 12 -47 54 -75 54 -17 -1 30 -40 48 -40 8 0 14 -7 14 -15
0 -8 8 -15 19 -15 10 0 21 -9 24 -20 4 -15 14 -20 36 -20 21 0 31 -5 31 -15 0
-8 6 -15 14 -15 8 0 17 -4 21 -9 3 -5 -10 -9 -30 -8 -19 1 -35 6 -35 10 0 4
-9 3 -20 -3 -11 -6 -34 -13 -51 -15 -25 -3 -32 0 -36 16 -3 12 -11 18 -19 15
-8 -3 -13 -1 -11 5 2 12 -8 18 -62 43 -19 9 -36 14 -39 11 -3 -2 -5 -21 -6
-42 -1 -30 3 -37 15 -35 9 1 41 -25 73 -62 106 -118 181 -154 481 -231 186
-47 325 -74 409 -79 37 -2 73 -9 79 -15 6 -6 18 -11 27 -11 25 0 19 -121 -9
-183 -21 -45 -21 -50 -6 -73 12 -18 20 -22 32 -16 9 5 23 7 33 5 9 -2 22 3 29
11 9 10 30 16 57 16 23 0 46 5 49 10 4 6 10 8 15 5 5 -3 14 4 20 15 13 24 53
46 104 55 36 7 38 6 34 -16 -2 -17 -13 -27 -38 -35 -24 -7 -36 -18 -38 -32 -2
-14 -11 -22 -23 -22 -12 0 -24 -12 -33 -34 -10 -24 -20 -34 -33 -32 -10 2 -12
1 -5 -1 28 -10 7 -55 -22 -47 -20 5 -22 2 -18 -25 2 -19 0 -31 -7 -31 -6 0
-11 9 -11 20 0 17 -2 19 -14 8 -10 -9 -11 -17 -4 -26 8 -9 8 -20 0 -37 -12
-26 -27 -32 -36 -16 -10 16 -46 0 -46 -21 0 -17 -5 -19 -32 -13 -26 6 -30 5
-25 -9 4 -9 2 -16 -3 -16 -4 0 -21 -11 -37 -24 -33 -28 -72 -40 -245 -82 -64
-15 -121 -14 -70 1 22 7 31 25 11 25 -5 0 -8 4 -5 9 3 5 -1 14 -10 21 -21 18
-43 -2 -25 -23 9 -12 8 -16 -4 -21 -9 -3 -14 -10 -10 -16 3 -5 -6 -12 -20 -15
-14 -3 -36 -7 -50 -10 -18 -4 -25 -1 -25 10 0 8 -4 15 -10 15 -5 0 -7 -7 -4
-15 5 -12 -5 -15 -59 -15 -36 0 -72 -3 -81 -6 -8 -3 -22 3 -32 15 -17 19 -41
20 -29 0 7 -11 10 -10 -80 -14 -38 -1 -80 1 -92 6 -21 8 -91 17 -178 24 -42 4
-85 13 -175 41 -30 9 -67 16 -83 15 -16 -1 -30 5 -33 14 -4 8 -18 15 -33 15
-15 0 -36 8 -47 18 -10 9 -44 26 -74 36 -30 10 -61 23 -68 29 -19 15 -73 45
-118 67 -23 11 -44 27 -47 35 -4 8 -23 23 -44 34 -42 21 -253 221 -253 239 0
7 -7 12 -15 12 -9 0 -18 8 -22 18 -3 9 -24 34 -45 55 -21 21 -38 42 -38 45 -1
9 -69 82 -76 82 -6 0 0 -65 12 -120 3 -14 9 -52 13 -85 5 -33 9 -55 10 -50 4
26 21 -25 21 -62 0 -34 5 -46 24 -58 16 -11 22 -22 19 -38 -3 -13 5 -40 16
-61 12 -20 21 -43 21 -51 0 -8 5 -15 11 -15 5 0 16 -15 24 -33 8 -19 21 -39
29 -46 9 -7 14 -16 12 -20 -3 -3 4 -24 15 -46 10 -22 22 -57 25 -77 4 -21 11
-38 16 -38 5 0 7 -4 3 -9 -3 -6 3 -15 14 -21 11 -6 26 -29 32 -53 7 -23 21
-51 31 -63 10 -11 16 -23 13 -26 -4 -3 8 -27 24 -54 17 -26 31 -56 31 -66 0
-16 11 -23 33 -19 11 2 9 -17 -3 -24 -16 -10 -12 -30 11 -56 34 -38 47 -61 65
-114 9 -27 25 -56 35 -63 11 -7 19 -21 19 -31 0 -10 9 -30 20 -44 11 -14 20
-29 20 -34 0 -30 89 -179 136 -227 30 -31 50 -56 44 -56 -5 0 0 -11 12 -25 12
-14 28 -25 37 -25 12 0 12 -2 -3 -13 -16 -12 -15 -14 8 -34 13 -12 30 -37 37
-57 7 -20 19 -36 26 -36 19 0 28 -30 12 -40 -10 -7 -9 -12 8 -27 16 -14 20
-26 16 -55 -3 -21 -9 -36 -13 -33 -5 3 -11 1 -15 -5 -3 -5 24 -24 60 -42 38
-18 78 -46 93 -65 15 -18 34 -33 43 -33 9 0 24 -9 34 -20 16 -18 16 -20 1 -26
-9 -3 -26 -4 -37 -1 -23 6 -104 -46 -104 -66 0 -6 15 -14 33 -18 26 -5 32 -4
28 8 -3 8 0 13 7 11 6 -1 38 2 70 6 50 7 56 10 46 23 -20 24 8 33 53 17 48
-17 96 -52 170 -122 l57 -55 53 35 c29 20 69 38 88 40 19 3 61 11 93 17 33 7
61 10 63 8 3 -2 -12 -12 -33 -22 -21 -10 -41 -22 -44 -28 -11 -16 6 -62 28
-72 33 -17 53 -37 47 -46 -3 -5 6 -9 20 -9 30 0 33 -8 9 -25 -18 -14 -8 -39
13 -31 7 3 16 1 19 -4 18 -29 72 12 85 64 7 24 60 37 60 14 1 -7 6 -3 14 10 7
13 26 32 42 43 16 10 24 19 17 19 -6 0 -13 10 -15 22 -2 15 -13 24 -34 30 -27
7 -30 12 -30 43 1 21 6 35 14 35 6 0 12 -7 12 -15 0 -23 19 -18 49 14 28 30
24 42 -19 56 -17 5 -19 9 -9 15 25 16 78 -27 79 -62 0 -12 8 -18 21 -18 18 0
20 4 15 28 -5 19 -4 23 3 13 15 -23 40 -21 58 5 8 14 18 22 21 20 2 -3 13 -1
23 5 17 8 18 6 13 -21 -5 -23 -3 -30 10 -30 9 0 16 -4 16 -10 0 -5 5 -10 11
-10 6 0 9 9 6 19 -6 23 12 53 20 34 2 -7 10 -13 16 -13 5 0 7 3 4 6 -8 8 11
44 23 44 5 0 6 -7 3 -17 -4 -11 -3 -14 5 -9 7 4 12 14 12 22 0 16 9 18 29 5 9
-6 10 -11 2 -15 -16 -10 -14 -26 4 -26 8 0 15 7 15 16 0 9 9 18 20 21 11 3 17
10 13 16 -3 5 2 16 12 23 15 11 16 16 5 29 -11 13 -9 15 11 15 13 0 31 -4 39
-10 9 -5 19 -5 26 1 9 7 19 6 33 -3 19 -12 24 -10 51 19 17 18 30 36 30 41 0
5 7 15 15 22 10 9 15 9 15 1 0 -6 18 -11 45 -11 42 0 45 2 40 23 -5 18 1 25
35 41 51 24 65 41 54 63 -8 17 -14 133 -8 133 10 0 146 -100 156 -115 11 -15
41 7 49 36 12 42 9 130 -4 157 -8 15 -21 42 -30 60 -9 19 -17 40 -17 48 0 20
-60 124 -71 124 -14 0 -10 49 7 86 9 19 21 34 28 34 6 0 35 -23 65 -50 30 -27
57 -47 61 -45 4 2 10 46 13 96 6 72 4 97 -7 114 -19 29 -24 87 -8 92 7 3 22
-18 38 -54 34 -75 37 -98 19 -113 -17 -14 -21 -106 -5 -130 10 -16 100 -22
100 -7 0 4 -11 34 -25 67 -17 40 -24 75 -23 104 3 52 15 51 23 -2 9 -53 25
-92 53 -129 23 -31 52 -44 52 -24 0 5 10 11 23 13 30 4 33 37 4 68 -22 24 -32
70 -14 70 4 0 2 6 -5 14 -11 13 -15 13 -24 1 -8 -11 -12 -10 -22 5 -14 23 -1
34 28 25 15 -5 18 -3 14 9 -4 10 -18 14 -46 13 -25 -1 -43 3 -45 11 -3 7 4 12
16 12 30 0 27 33 -9 105 -16 33 -30 68 -30 77 0 9 -12 31 -27 49 -15 17 -37
51 -49 75 -19 37 -20 45 -8 52 11 6 7 15 -21 42 -34 35 -45 60 -24 60 5 0 8 4
4 10 -3 5 -12 7 -19 4 -16 -6 -20 59 -18 302 1 107 7 215 16 265 8 47 18 120
22 164 l7 79 -26 -17 c-15 -10 -27 -13 -27 -7 0 5 11 17 25 26 13 9 27 24 30
35 4 10 13 19 21 19 15 0 18 15 15 67 -2 26 1 32 12 27 23 -8 45 36 25 50 -7
6 -12 19 -10 29 3 17 6 17 27 3 26 -17 35 -12 35 20 0 13 5 26 11 29 6 4 8 13
5 20 -5 14 20 55 40 68 7 4 16 23 20 42 3 19 11 35 16 35 6 0 8 16 6 36 -3 27
0 38 14 45 10 5 18 19 18 30 0 11 5 30 12 42 6 12 17 49 24 82 22 102 35 150
45 160 5 5 9 17 9 26 0 9 7 22 15 29 8 7 15 22 15 34 0 16 2 18 9 7 5 -8 7
-29 4 -48 -7 -43 12 -44 50 -3 16 17 34 30 40 30 22 0 83 65 105 110 12 25 26
70 32 99 5 30 14 59 20 65 5 7 7 33 5 59 -3 26 0 49 6 52 6 4 6 11 1 18 -5 7
-12 24 -16 39 -5 24 -3 28 20 34 24 6 26 10 20 46 -4 21 -2 47 3 56 11 21 20
445 11 482 -6 21 -9 16 -15 -28 -4 -29 -12 -55 -16 -58 -5 -3 -9 -18 -9 -35 0
-29 -28 -138 -49 -192 -6 -16 -11 -40 -11 -55 0 -15 -5 -34 -11 -42 -14 -21
-4 62 16 124 8 27 15 61 15 76 0 15 3 30 7 34 14 14 42 181 53 321 8 97 16
143 26 151 16 13 19 44 4 44 -15 0 -12 29 5 46 8 9 15 26 15 40 0 15 6 24 15
24 11 0 14 7 9 24 -3 13 -1 27 5 30 14 9 14 121 1 178 -5 24 -13 86 -18 138
-8 84 -7 99 10 126 10 17 18 40 18 51 0 12 6 26 14 32 7 6 16 39 19 72 3 34
10 66 16 72 17 17 24 -18 13 -70 -12 -54 -8 -69 8 -29 5 15 17 29 25 32 8 4
15 10 15 16 0 5 11 24 24 41 40 53 91 189 81 214 -3 10 3 22 15 30 15 10 18
21 14 38 -3 14 -1 39 5 57 15 43 33 163 32 211 -1 21 3 37 10 37 8 0 9 21 4
69 -7 73 3 118 16 71 7 -23 7 -23 9 8 1 17 3 38 4 45 1 6 12 11 25 9 22 -2 23
0 18 44 -3 28 -11 51 -21 56 -12 7 -16 24 -16 71 0 86 -19 233 -36 287 -8 25
-28 72 -44 105 -35 75 -100 237 -100 251 0 7 -7 17 -15 24 -17 14 -20 40 -5
40 6 0 10 -7 10 -15 0 -8 4 -15 10 -15 21 0 -43 136 -101 213 -33 44 -65 92
-70 105 -5 14 -22 40 -38 57 -22 26 -29 46 -35 101 -8 78 -46 165 -80 180 -11
5 -34 37 -51 71 -16 33 -45 76 -63 95 -19 18 -47 58 -62 88 -16 30 -45 68 -64
83 -20 15 -36 36 -36 45 -1 17 -80 72 -104 72 -8 0 -21 11 -29 24 -9 13 -40
40 -71 60 -30 20 -78 59 -106 86 -28 28 -56 50 -61 50 -5 0 -9 7 -9 16 0 10 6
14 15 10 8 -3 15 -1 15 4 0 14 -51 50 -71 50 -11 0 -19 4 -19 8 0 4 -35 14
-77 21 -90 16 -103 21 -162 69 -43 35 -137 75 -153 66 -5 -3 -11 2 -14 10 -8
20 -44 21 -44 1 0 -8 -4 -15 -10 -15 -5 0 -10 7 -10 15 0 10 -10 14 -32 14
-18 -1 -46 4 -63 11 -16 6 -32 12 -35 12 -3 0 -18 9 -34 21 -20 14 -30 17 -35
8 -6 -8 -17 -7 -46 5 -21 9 -52 14 -69 11 -21 -3 -35 1 -43 12 -11 15 -12 14
-13 -2 0 -10 -12 -22 -26 -27 -35 -14 -35 -13 -28 15 8 33 -11 33 -32 0 -13
-19 -20 -23 -30 -14 -9 7 -18 7 -33 0 -27 -15 -41 -14 -41 3 0 15 -43 31 -75
27 -11 -1 -28 -11 -37 -23 l-18 -20 0 21 c0 23 -10 27 -26 11 -11 -11 -54 -2
-54 11 0 12 -27 11 -35 -1z m-101 -521 c-3 -5 -10 -7 -15 -3 -5 3 -7 10 -3 15
3 5 10 7 15 3 5 -3 7 -10 3 -15z m-234 -20 c0 -10 -4 -19 -9 -19 -10 0 -21 36
-14 44 10 10 23 -5 23 -25z m-50 -39 c13 -8 13 -10 -2 -10 -9 0 -20 5 -23 10
-8 13 5 13 25 0z m665 0 c3 -5 -1 -10 -9 -10 -9 0 -16 5 -16 10 0 6 4 10 9 10
6 0 13 -4 16 -10z m-945 -170 c0 -5 -8 -10 -17 -10 -10 0 -25 -15 -34 -33 -18
-37 -43 -42 -47 -11 -2 16 4 23 23 28 14 4 28 13 31 21 7 17 44 21 44 5z
m1590 -20 c0 -5 -4 -10 -10 -10 -5 0 -10 5 -10 10 0 6 5 10 10 10 6 0 10 -4
10 -10z m269 -374 c9 -34 8 -38 -3 -25 -16 17 -34 90 -18 74 6 -5 15 -28 21
-49z m342 -722 c12 -14 11 -16 -5 -13 -11 2 -21 10 -24 17 -5 17 13 15 29 -4z
m62 -178 c7 -18 -42 -41 -56 -27 -7 7 -6 15 3 26 16 19 46 20 53 1z m879 -343
c4 -75 -5 -93 -22 -47 -11 29 -13 117 -3 127 14 14 21 -10 25 -80z m-4915
-115 c-3 -7 -5 -2 -5 12 0 14 2 19 5 13 2 -7 2 -19 0 -25z m4690 -600 c-3 -8
-6 -5 -6 6 -1 11 2 17 5 13 3 -3 4 -12 1 -19z m-1260 -694 c-3 -3 -12 -4 -19
-1 -8 3 -5 6 6 6 11 1 17 -2 13 -5z m30 -40 c-3 -3 -12 -4 -19 -1 -8 3 -5 6 6
6 11 1 17 -2 13 -5z m787 -859 c3 -8 1 -15 -4 -15 -6 0 -10 7 -10 15 0 8 2 15
4 15 2 0 6 -7 10 -15z m-110 -180 c-22 -16 -44 -19 -44 -6 0 8 16 14 54 20 6
0 1 -6 -10 -14z m256 -109 c0 -3 -4 -8 -10 -11 -5 -3 -10 -1 -10 4 0 6 5 11
10 11 6 0 10 -2 10 -4z m-28 -78 c-7 -7 -12 -8 -12 -2 0 14 12 26 19 19 2 -3
-1 -11 -7 -17z m-45 -30 c-3 -8 -6 -5 -6 6 -1 11 2 17 5 13 3 -3 4 -12 1 -19z
m9 -75 c-11 -11 -19 6 -11 24 8 17 8 17 12 0 3 -10 2 -21 -1 -24z m-6 -31 c0
-11 -9 -29 -20 -42 -11 -13 -20 -18 -20 -12 0 6 5 14 10 17 6 3 10 17 10 31 0
13 5 24 10 24 6 0 10 -8 10 -18z m-34 -109 c-2 -10 -7 -33 -11 -50 -4 -18 -11
-33 -17 -33 -6 0 -8 6 -5 13 3 8 1 20 -3 28 -6 8 -4 16 3 21 7 4 13 12 13 18
2 18 4 20 15 20 6 0 8 -8 5 -17z m-52 -159 c13 -5 14 -9 5 -20 -16 -20 -29
-17 -29 6 0 22 1 23 24 14z m-434 -1074 c0 -5 -8 -10 -17 -10 -15 0 -16 2 -3
10 19 12 20 12 20 0z m-45 -46 c-9 -9 -18 -14 -21 -11 -9 9 6 27 22 27 13 0
13 -2 -1 -16z m-35 -38 c0 -19 -5 -24 -25 -22 -29 1 -28 1 -15 27 15 27 40 24
40 -5z m-363 -28 c-3 -8 -6 -5 -6 6 -1 11 2 17 5 13 3 -3 4 -12 1 -19z m338
-27 c-3 -6 -11 -11 -17 -11 -6 0 -6 6 2 15 14 17 26 13 15 -4z m-156 -120 c-3
-6 -10 -7 -18 -2 -7 5 -10 14 -6 21 9 14 29 -2 24 -19z m-79 -75 c-14 -14 -24
0 -16 21 6 15 8 15 16 3 6 -9 5 -19 0 -24z m-30 -6 c0 -5 -7 -10 -15 -10 -8 0
-15 5 -15 10 0 6 7 10 15 10 8 0 15 -4 15 -10z m-340 -190 c0 -5 -7 -10 -16
-10 -8 0 -12 5 -9 10 3 6 10 10 16 10 5 0 9 -4 9 -10z m399 -1131 c-16 -10
-23 -4 -14 10 3 6 11 8 17 5 6 -4 5 -9 -3 -15z m-244 -269 c-3 -5 -11 -10 -16
-10 -6 0 -7 5 -4 10 3 6 11 10 16 10 6 0 7 -4 4 -10z m345 0 c0 -5 -7 -10 -16
-10 -8 0 -12 5 -9 10 3 6 10 10 16 10 5 0 9 -4 9 -10z m-520 -120 c0 -5 -5
-10 -11 -10 -5 0 -7 5 -4 10 3 6 8 10 11 10 2 0 4 -4 4 -10z m280 -31 c0 -11
-4 -18 -10 -14 -5 3 -7 12 -3 20 7 21 13 19 13 -6z m-716 -184 c-4 -8 -14 -15
-23 -15 -14 1 -13 3 3 15 25 19 27 19 20 0z m49 -36 c-4 -13 -9 -17 -15 -11
-11 11 -3 32 12 32 4 0 6 -9 3 -21z m-73 -208 c0 -11 -26 -22 -34 -14 -12 12
-5 23 14 23 11 0 20 -4 20 -9z"/>
<path d="M3785 9760 c-3 -5 1 -10 9 -10 9 0 16 5 16 10 0 6 -4 10 -9 10 -6 0
-13 -4 -16 -10z"/>
<path d="M3665 9620 c-3 -5 -1 -10 4 -10 6 0 11 5 11 10 0 6 -2 10 -4 10 -3 0
-8 -4 -11 -10z"/>
<path d="M3610 9590 c-8 -5 -10 -10 -5 -10 6 0 17 5 25 10 8 5 11 10 5 10 -5
0 -17 -5 -25 -10z"/>
<path d="M3340 9330 c0 -5 5 -10 10 -10 6 0 10 5 10 10 0 6 -4 10 -10 10 -5 0
-10 -4 -10 -10z"/>
<path d="M5548 9028 c9 -9 15 -9 24 0 9 9 7 12 -12 12 -19 0 -21 -3 -12 -12z"/>
<path d="M5630 8888 c0 -9 5 -20 10 -23 13 -8 13 5 0 25 -8 13 -10 13 -10 -2z"/>
<path d="M5600 8674 c0 -30 21 -54 46 -54 l26 0 -24 29 c-28 36 -48 46 -48 25z"/>
<path d="M6644 8645 c4 -16 13 -36 21 -44 11 -12 13 -10 11 13 -2 15 -11 35
-21 44 -17 16 -17 15 -11 -13z"/>
<path d="M5745 8350 c-8 -13 4 -32 16 -25 12 8 12 35 0 35 -6 0 -13 -4 -16
-10z"/>
<path d="M3120 7830 c0 -5 4 -10 9 -10 6 0 13 5 16 10 3 6 -1 10 -9 10 -9 0
-16 -4 -16 -10z"/>
<path d="M3435 7800 c-16 -4 -50 -8 -74 -9 -34 -1 -42 -4 -37 -16 4 -11 -1
-15 -19 -15 -15 0 -25 6 -25 14 0 25 -38 28 -120 10 -83 -18 -105 -34 -46 -34
19 0 38 -4 41 -10 3 -6 -4 -10 -18 -10 -31 0 -38 -9 -26 -31 12 -23 41 -26 33
-4 -4 9 0 15 10 15 22 0 16 -43 -6 -52 -25 -10 -23 -49 2 -55 24 -6 25 -16 5
-36 -13 -13 -11 -16 11 -21 14 -4 29 -4 34 -1 16 10 11 -7 -7 -27 -17 -19 -16
-19 9 -13 40 10 41 -8 1 -35 -21 -14 -48 -24 -68 -23 -21 1 -42 -7 -57 -21
l-23 -21 30 -3 c16 -2 31 1 33 7 2 6 11 11 19 11 9 0 13 -6 9 -15 -3 -8 -1
-15 4 -15 6 0 10 -4 10 -10 0 -5 -15 -10 -34 -10 -19 0 -38 -4 -41 -10 -8 -13
-45 -13 -45 1 0 6 -8 8 -19 4 -11 -3 -22 -1 -26 5 -10 16 -35 12 -35 -7 0 -15
-1 -15 -19 1 -16 15 -21 15 -33 3 -8 -8 -38 -18 -66 -22 -29 -4 -52 -11 -52
-16 0 -5 -16 -9 -36 -9 -27 0 -35 -4 -31 -14 4 -10 -2 -16 -16 -18 -15 -2 -21
-9 -19 -20 2 -13 -4 -18 -23 -18 -21 0 -57 -12 -73 -25 -1 -1 2 -14 7 -28 7
-18 7 -28 0 -33 -7 -4 -5 -12 5 -23 9 -10 13 -20 10 -24 -10 -10 7 -47 22 -47
8 0 14 -4 14 -10 0 -5 -6 -10 -14 -10 -9 0 -12 -8 -8 -25 3 -18 11 -25 27 -25
32 0 72 -23 67 -38 -2 -8 2 -10 14 -5 14 5 16 2 10 -20 -6 -27 8 -38 18 -14 3
8 8 7 16 -6 6 -9 15 -15 20 -12 13 8 52 -14 45 -25 -3 -5 4 -19 16 -31 13 -13
19 -29 16 -45 -3 -16 4 -30 19 -45 13 -13 24 -28 24 -36 0 -7 9 -18 20 -25 11
-7 20 -17 20 -23 0 -6 24 -21 53 -34 28 -13 61 -34 72 -46 29 -31 224 -69 325
-62 41 3 91 8 110 12 19 4 50 7 68 8 21 0 32 6 32 15 0 10 7 12 24 8 14 -3 27
-2 31 3 3 5 28 17 56 26 35 12 53 24 59 41 6 14 17 27 25 30 21 9 19 31 -5 37
-11 3 -20 10 -20 15 0 6 44 12 105 14 92 3 107 6 127 25 13 12 41 38 63 57 48
41 91 124 99 189 3 27 13 58 21 70 8 12 15 32 15 44 0 12 9 27 20 33 14 8 19
17 15 29 -3 12 4 30 19 48 13 16 26 43 29 60 3 18 8 36 11 42 3 5 1 11 -5 13
-12 4 -18 39 -20 116 -1 42 -4 51 -14 42 -10 -8 -15 -6 -20 9 -4 12 -12 18
-21 14 -9 -3 -14 2 -14 17 0 16 -4 20 -15 16 -9 -3 -18 1 -21 9 -3 7 -11 12
-18 9 -7 -3 -19 2 -26 11 -7 8 -22 15 -35 15 -12 0 -30 9 -40 20 -10 11 -23
19 -29 16 -6 -2 -26 5 -43 16 -18 11 -33 15 -33 9 0 -21 -21 -11 -38 19 -18
30 -92 67 -112 55 -6 -4 -19 -1 -28 7 -9 8 -30 20 -45 28 -24 12 -30 12 -37 1
-7 -12 -19 -11 -71 2 -84 21 -157 27 -194 17z m-210 -50 c3 -5 18 -10 33 -10
25 -1 25 -2 8 -12 -14 -8 -24 -8 -37 0 -10 7 -26 9 -36 5 -16 -6 -16 -5 -4 10
15 19 27 22 36 7z m85 -10 c0 -5 -5 -10 -11 -10 -5 0 -7 5 -4 10 3 6 8 10 11
10 2 0 4 -4 4 -10z m410 0 c0 -5 -7 -10 -15 -10 -8 0 -15 5 -15 10 0 6 7 10
15 10 8 0 15 -4 15 -10z m-397 -337 c10 -9 -70 -43 -102 -43 l-26 1 25 14 c14
8 33 14 43 15 9 0 17 5 17 10 0 11 33 14 43 3z m103 -172 c16 -5 48 -14 72
-21 23 -7 42 -14 42 -16 0 -23 -16 -29 -68 -26 -31 2 -62 8 -68 13 -8 6 -14 4
-18 -6 -4 -10 1 -16 17 -17 12 -1 -18 -4 -68 -8 -49 -3 -94 -3 -100 1 -21 14
-92 15 -135 1 -25 -8 -60 -14 -77 -13 -18 1 -33 -3 -33 -9 0 -5 -10 -10 -22
-11 l-23 0 23 -9 c34 -14 27 -19 -28 -18 l-50 1 21 23 c31 33 140 82 211 95
159 29 255 35 304 20z m-546 -155 c0 -8 -7 -16 -15 -20 -13 -4 -14 -2 -5 14
13 23 20 26 20 6z m240 -186 c0 -5 -7 -10 -15 -10 -8 0 -15 5 -15 10 0 6 7 10
15 10 8 0 15 -4 15 -10z m-46 -65 c4 -10 -1 -15 -14 -15 -20 0 -26 11 -13 23
10 11 20 8 27 -8z m90 -36 c22 -6 61 -16 86 -24 57 -17 130 -24 253 -25 64 0
97 -4 97 -11 0 -7 -12 -9 -33 -5 -18 3 -54 0 -79 -8 -25 -7 -63 -11 -85 -9
-21 3 -57 6 -80 6 -24 1 -43 4 -43 8 0 3 -12 6 -28 6 -31 0 -152 51 -152 64 0
12 14 11 64 -2z"/>
<path d="M2975 7778 c-11 -6 -27 -15 -35 -20 -17 -9 -32 -15 -57 -24 -14 -4
-15 -7 -3 -14 10 -6 5 -11 -21 -18 -33 -9 -33 -10 -11 -19 27 -10 172 3 186
18 14 13 6 17 -44 20 -31 2 -44 -1 -42 -9 1 -7 -7 -12 -19 -12 -23 0 -22 19 2
31 8 4 31 15 52 25 21 11 41 22 43 27 8 11 -28 7 -51 -5z"/>
<path d="M1862 7740 c0 -14 2 -19 5 -12 2 6 2 18 0 25 -3 6 -5 1 -5 -13z"/>
<path d="M2995 7740 c-3 -5 1 -10 9 -10 9 0 16 5 16 10 0 6 -4 10 -9 10 -6 0
-13 -4 -16 -10z"/>
<path d="M2671 7681 c-9 -6 -10 -11 -2 -15 14 -9 51 2 51 15 0 11 -30 12 -49
0z"/>
<path d="M3108 7473 c-10 -2 -18 -9 -18 -14 0 -6 8 -5 20 1 11 6 20 13 20 15
0 3 -1 4 -2 4 -2 -1 -11 -3 -20 -6z"/>
<path d="M3035 7390 c3 -5 8 -10 11 -10 2 0 4 5 4 10 0 6 -5 10 -11 10 -5 0
-7 -4 -4 -10z"/>
<path d="M4800 6221 c0 -19 5 -31 14 -31 17 0 16 52 -1 58 -9 2 -13 -7 -13
-27z"/>
<path d="M4854 6103 c0 -10 -3 -18 -9 -18 -23 -1 -30 -16 -27 -59 3 -31 9 -46
18 -46 8 0 14 -4 14 -9 0 -6 11 -22 25 -37 14 -15 25 -33 25 -41 0 -18 50 -93
62 -93 5 0 6 4 3 10 -3 5 -8 44 -11 86 -3 65 -8 80 -28 99 -16 15 -22 29 -19
46 3 15 -4 35 -17 52 -25 31 -38 35 -36 10z"/>
<path d="M2050 6079 c0 -5 5 -7 10 -4 6 3 10 8 10 11 0 2 -4 4 -10 4 -5 0 -10
-5 -10 -11z"/>
<path d="M6120 5995 c0 -5 7 -16 16 -26 14 -15 18 -16 30 -4 8 7 14 18 14 24
0 15 -17 14 -23 -1 -3 -10 -7 -10 -20 1 -10 7 -17 10 -17 6z"/>
<path d="M2000 5831 c0 -34 22 -83 32 -73 15 15 -1 92 -18 92 -8 0 -14 -8 -14
-19z"/>
<path d="M1951 5738 l0 -53 14 38 c14 37 11 67 -6 67 -5 0 -9 -24 -8 -52z"/>
<path d="M4672 5701 c-7 -4 -12 -12 -10 -17 1 -5 -3 -19 -10 -30 -10 -20 -9
-22 19 -28 17 -3 35 -3 40 0 5 3 9 -4 9 -14 0 -15 5 -19 20 -15 11 3 27 0 35
-7 11 -9 18 -10 29 -1 10 9 15 8 19 -2 3 -8 19 -16 35 -19 24 -3 28 -1 24 14
-2 10 -20 26 -39 35 -19 9 -41 27 -50 39 -9 14 -25 24 -39 24 -13 0 -24 5 -24
11 0 5 -5 7 -10 4 -6 -4 -16 -2 -23 4 -7 5 -18 6 -25 2z"/>
<path d="M5990 5701 c0 -5 5 -13 10 -16 6 -3 10 -2 10 4 0 5 -4 13 -10 16 -5
3 -10 2 -10 -4z"/>
<path d="M4604 5635 c-9 -22 1 -29 15 -11 8 10 9 16 1 21 -5 3 -13 -1 -16 -10z"/>
<path d="M1846 5599 c-3 -17 -6 -39 -5 -48 1 -20 28 38 29 62 0 29 -17 19 -24
-14z"/>
<path d="M4900 5580 c0 -5 5 -10 10 -10 6 0 10 5 10 10 0 6 -4 10 -10 10 -5 0
-10 -4 -10 -10z"/>
<path d="M4946 5574 c-3 -8 1 -14 9 -14 20 0 28 17 11 23 -8 3 -17 -1 -20 -9z"/>
<path d="M2031 5515 c-16 -54 -35 -73 -55 -56 -12 10 -15 5 -21 -28 -4 -23 -6
-44 -5 -48 1 -4 -7 -10 -17 -14 -32 -13 -63 -9 -82 10 -18 18 -19 18 -24 1 -3
-12 -18 -21 -41 -25 -43 -9 -58 -25 -22 -25 34 0 33 -23 -1 -37 l-28 -11 31
-1 c16 -1 39 6 50 14 24 18 83 19 107 1 19 -15 23 -36 6 -36 -7 0 -9 -10 -5
-25 7 -27 -11 -36 -20 -10 -4 8 -13 15 -20 15 -8 0 -17 7 -20 15 -8 20 -33 19
-41 0 -12 -32 62 -70 105 -54 46 18 73 50 122 151 44 90 46 100 34 124 -8 14
-14 31 -14 38 0 6 -6 19 -13 28 -12 14 -15 11 -26 -27z"/>
<path d="M4938 5543 c7 -3 16 -2 19 1 4 3 -2 6 -13 5 -11 0 -14 -3 -6 -6z"/>
<path d="M1764 5441 c9 -10 16 -24 14 -31 -2 -7 3 -15 10 -17 15 -6 15 7 2 41
-5 14 -17 26 -26 26 -16 0 -16 -1 0 -19z"/>
<path d="M2108 5404 c-3 -5 -1 -20 5 -34 8 -20 11 -22 14 -8 5 20 -12 55 -19
42z"/>
<path d="M5672 5322 c-7 -5 -10 -16 -6 -25 7 -19 19 -14 34 14 12 21 -3 26
-28 11z"/>
<path d="M3798 4433 c7 -3 16 -2 19 1 4 3 -2 6 -13 5 -11 0 -14 -3 -6 -6z"/>
<path d="M3831 4414 c0 -11 3 -14 6 -6 3 7 2 16 -1 19 -3 4 -6 -2 -5 -13z"/>
<path d="M2750 4105 c0 -8 5 -15 10 -15 6 0 10 7 10 15 0 8 -4 15 -10 15 -5 0
-10 -7 -10 -15z"/>
<path d="M2794 4082 c-6 -4 -13 -15 -17 -24 -9 -24 -28 -23 -34 2 -3 11 -9 20
-14 20 -5 0 -9 -9 -9 -20 0 -11 -4 -20 -10 -20 -5 0 -10 -18 -10 -40 0 -22 -5
-40 -11 -40 -5 0 -7 -5 -3 -11 4 -8 9 -8 17 0 13 13 47 15 47 2 0 -12 -26 -32
-32 -26 -3 3 -3 -6 -1 -20 3 -14 10 -25 17 -25 7 0 6 -4 -2 -9 -10 -6 -6 -10
15 -14 15 -4 35 -11 43 -17 13 -9 13 -11 0 -20 -13 -8 -11 -11 8 -16 12 -4 22
-11 22 -17 0 -7 4 -7 12 1 15 15 32 16 23 1 -4 -6 1 -17 11 -25 18 -14 18 -14
-3 -5 -12 6 -27 11 -34 11 -22 0 11 -28 46 -40 21 -7 32 -16 29 -24 -7 -17 43
-57 62 -49 8 3 14 -1 14 -11 0 -10 9 -16 26 -16 16 0 37 -13 59 -37 19 -21 35
-41 35 -45 0 -17 18 -7 23 13 4 13 10 18 17 14 9 -6 9 -10 -1 -16 -21 -13 20
-52 49 -46 15 3 28 -3 41 -19 18 -22 39 -34 27 -16 -3 5 1 9 9 9 8 0 15 -6 15
-13 0 -7 9 -16 20 -19 11 -3 20 -10 20 -14 0 -5 20 -16 45 -25 25 -10 45 -24
45 -32 0 -8 7 -14 15 -14 8 0 15 4 15 10 0 5 7 7 15 4 8 -4 15 -1 15 6 0 6
-13 17 -29 23 -16 6 -32 20 -35 30 -3 14 -11 18 -26 14 -16 -4 -20 -1 -18 11
2 16 -66 93 -80 91 -23 -4 -33 4 -13 10 39 11 34 24 -20 50 -34 16 -47 26 -38
31 9 6 8 12 -5 25 -20 20 -36 10 -39 -23 -2 -27 -17 -17 -17 11 0 12 -4 28 -9
36 -6 8 -6 24 0 38 6 17 5 23 -5 23 -8 0 -17 6 -20 13 -3 6 -3 2 0 -10 5 -21
2 -23 -30 -23 -26 0 -34 4 -30 14 3 8 12 17 20 20 9 3 12 10 9 16 -3 5 -1 10
6 10 10 0 10 3 2 11 -6 6 -9 17 -7 24 3 7 -2 15 -12 19 -13 5 -15 2 -11 -13 8
-31 -20 -33 -43 -4 -11 14 -20 30 -20 34 0 5 -7 9 -16 9 -14 0 -14 3 -4 15 7
8 18 15 26 15 19 0 27 19 15 34 -6 7 -7 16 -3 21 4 4 0 6 -8 3 -8 -2 -16 -17
-18 -31 -4 -32 -32 -37 -32 -5 0 20 -1 20 -19 4 -23 -21 -41 -14 -41 15 0 10
-5 19 -11 19 -8 0 -10 17 -7 53 3 28 3 44 1 35 -7 -27 -63 -25 -63 1 0 23 -11
33 -26 23z m3 -218 c-3 -3 -12 -4 -19 -1 -8 3 -5 6 6 6 11 1 17 -2 13 -5z
m403 -319 c0 -8 -2 -15 -4 -15 -2 0 -6 7 -10 15 -3 8 -1 15 4 15 6 0 10 -7 10
-15z m100 -20 c0 -8 -4 -15 -10 -15 -5 0 -10 7 -10 15 0 8 5 15 10 15 6 0 10
-7 10 -15z"/>
<path d="M2660 4064 c0 -8 5 -12 10 -9 6 3 10 10 10 16 0 5 -4 9 -10 9 -5 0
-10 -7 -10 -16z"/>
<path d="M2526 3940 c-3 -14 -7 -43 -9 -65 -4 -40 -18 -83 -43 -140 -27 -60
-81 -239 -77 -254 5 -19 48 -41 79 -41 13 0 30 -10 38 -22 l15 -21 10 25 c15
39 34 306 26 363 -4 27 -9 72 -12 99 -5 64 -19 91 -27 56z"/>
<path d="M3125 3811 c-8 -15 3 -31 21 -31 9 0 14 7 12 17 -4 20 -24 28 -33 14z"/>
<path d="M3280 3635 c0 -8 9 -15 20 -15 24 0 27 15 4 24 -22 9 -24 8 -24 -9z"/>
<path d="M4240 3500 c0 -6 -15 -8 -40 -4 l-40 7 2 -40 c1 -38 3 -40 45 -49 42
-10 45 -9 53 11 5 12 16 25 24 28 9 4 16 16 16 28 0 20 -2 21 -17 7 -38 -32
-46 -33 -39 -4 3 14 4 26 1 26 -3 0 -5 -5 -5 -10z"/>
<path d="M4395 3500 c3 -5 8 -10 11 -10 2 0 4 5 4 10 0 6 -5 10 -11 10 -5 0
-7 -4 -4 -10z"/>
<path d="M4467 3492 c-18 -19 -23 -42 -9 -42 12 1 46 30 34 30 -6 0 -9 7 -6
15 8 20 1 19 -19 -3z"/>
<path d="M4058 3473 c7 -3 16 -2 19 1 4 3 -2 6 -13 5 -11 0 -14 -3 -6 -6z"/>
<path d="M4328 3450 c-15 -16 -23 -32 -17 -35 5 -4 12 1 15 10 4 9 13 14 21
11 16 -7 30 21 17 34 -5 5 -20 -3 -36 -20z"/>
<path d="M3938 3453 c-29 -7 -21 -25 10 -21 15 2 26 7 25 13 -2 12 -12 14 -35
8z"/>
<path d="M4008 3443 c7 -3 16 -2 19 1 4 3 -2 6 -13 5 -11 0 -14 -3 -6 -6z"/>
<path d="M4400 3441 c0 -11 26 -22 34 -14 3 3 3 10 0 14 -7 12 -34 11 -34 0z"/>
<path d="M4055 3420 c-3 -5 -2 -10 4 -10 5 0 18 -3 28 -7 16 -6 16 -5 4 10
-15 19 -27 22 -36 7z"/>
<path d="M4346 3405 c-6 -17 17 -31 34 -20 7 4 5 11 -4 21 -18 18 -22 18 -30
-1z"/>
<path d="M4908 3403 c6 -2 18 -2 25 0 6 3 1 5 -13 5 -14 0 -19 -2 -12 -5z"/>
<path d="M4780 3340 c0 -5 5 -10 10 -10 6 0 10 5 10 10 0 6 -4 10 -10 10 -5 0
-10 -4 -10 -10z"/>
<path d="M3576 3325 c-9 -26 -7 -32 5 -12 6 10 9 21 6 23 -2 3 -7 -2 -11 -11z"/>
<path d="M3485 3320 c-3 -5 -2 -10 4 -10 5 0 13 5 16 10 3 6 2 10 -4 10 -5 0
-13 -4 -16 -10z"/>
<path d="M3708 3298 c9 -9 15 -9 24 0 9 9 7 12 -12 12 -19 0 -21 -3 -12 -12z"/>
<path d="M3884 3296 c-21 -16 -19 -20 15 -31 16 -5 21 -4 17 4 -4 6 0 11 8 11
9 0 16 7 16 15 0 19 -30 19 -56 1z"/>
<path d="M3987 3286 c-4 -9 -14 -16 -24 -16 -14 -1 -13 -4 7 -15 33 -19 51
-19 44 0 -8 19 3 19 38 1 22 -12 31 -12 40 -3 19 18 68 16 65 -3 -1 -10 10
-14 46 -15 26 -1 47 2 47 7 0 4 20 8 45 8 25 0 45 4 45 10 0 18 -36 28 -110
29 -41 0 -111 4 -156 7 -69 5 -82 4 -87 -10z"/>
<path d="M4665 3289 c-10 -15 1 -23 20 -15 9 3 13 10 10 16 -8 13 -22 13 -30
-1z"/>
<path d="M4610 3280 c0 -5 7 -10 15 -10 8 0 15 5 15 10 0 6 -7 10 -15 10 -8 0
-15 -4 -15 -10z"/>
<path d="M4365 3261 c-3 -5 -1 -12 5 -16 12 -7 30 2 30 16 0 12 -27 12 -35 0z"/>
<path d="M4568 3263 c7 -3 16 -2 19 1 4 3 -2 6 -13 5 -11 0 -14 -3 -6 -6z"/>
<path d="M2501 3143 c0 -12 -22 -42 -48 -68 -38 -37 -43 -45 -24 -40 17 5 22
3 19 -6 -5 -14 -48 -21 -48 -7 0 4 -4 8 -9 8 -5 0 -7 -18 -4 -40 4 -28 2 -40
-7 -40 -6 0 -10 6 -8 12 3 7 -1 19 -9 26 -7 7 -13 24 -13 38 0 13 -5 24 -11
24 -11 0 -7 -29 15 -105 l12 -40 60 60 c62 62 91 124 81 176 -4 22 -4 22 -6 2z"/>
<path d="M5840 2889 c1 -45 64 -179 85 -179 8 0 20 -10 26 -22 13 -25 110
-128 120 -128 13 0 7 59 -7 64 -19 7 -18 26 1 26 8 0 15 7 15 16 0 14 5 13 36
-5 40 -24 60 -26 67 -8 4 10 6 10 6 0 1 -14 31 -18 31 -5 0 23 -52 51 -99 54
-27 2 -47 6 -44 10 2 5 -4 8 -15 8 -19 0 -23 -24 -8 -48 17 -28 -21 -9 -41 21
-13 18 -43 52 -68 76 -25 23 -45 51 -45 60 0 10 -13 30 -30 46 -19 18 -30 24
-30 14z"/>
<path d="M6305 2560 c3 -5 11 -10 16 -10 6 0 7 5 4 10 -3 6 -11 10 -16 10 -6
0 -7 -4 -4 -10z"/>
<path d="M6224 2419 c-10 -17 23 -46 38 -31 8 8 8 15 -2 27 -15 18 -26 19 -36
4z"/>
<path d="M5915 2374 c-31 -8 -101 -14 -182 -14 -129 0 -133 -1 -133 -21 0 -46
63 -61 150 -36 44 13 116 15 127 3 10 -9 3 -119 -7 -131 -9 -11 -18 -84 -26
-220 -2 -38 -7 -91 -10 -118 -8 -57 12 -87 58 -87 24 0 32 6 44 35 8 19 19 35
24 35 6 0 10 9 10 20 0 11 7 23 15 26 8 4 15 13 15 21 0 8 5 11 10 8 13 -8 13
-60 0 -105 -6 -19 -13 -57 -16 -85 -4 -27 -10 -60 -15 -73 -13 -34 -11 -82 4
-82 7 0 13 17 15 43 1 23 7 44 12 45 6 2 10 17 10 34 0 37 48 125 72 131 10 3
18 13 18 22 0 13 6 16 26 11 23 -6 24 -5 14 13 -5 11 -11 51 -13 89 -1 55 2
74 16 89 9 11 17 26 16 34 0 8 -4 6 -9 -6 -8 -18 -9 -17 -9 8 -1 19 4 27 16
27 15 0 15 1 0 18 -10 10 -17 24 -17 30 0 29 -20 8 -25 -25 -9 -58 -19 -83
-59 -146 -21 -32 -42 -55 -48 -51 -7 5 -7 9 1 13 28 18 12 314 -18 344 -8 8
-14 1 -22 -21 -6 -18 -15 -32 -19 -32 -9 0 -19 92 -11 102 6 7 110 26 165 30
70 6 -17 38 -99 37 -27 0 -72 -7 -100 -15z m23 -524 c-7 -11 -15 -15 -17 -9
-2 6 3 15 10 20 20 12 21 11 7 -11z"/>
<path d="M6156 2381 c-4 -7 -5 -15 -2 -18 9 -9 19 4 14 18 -4 11 -6 11 -12 0z"/>
<path d="M6181 2347 c-7 -9 -18 -13 -26 -11 -18 7 -33 -122 -16 -139 8 -8 11
1 11 36 0 33 4 47 14 47 7 0 19 13 26 29 15 37 10 60 -9 38z"/>
<path d="M6208 2093 c6 -2 18 -2 25 0 6 3 1 5 -13 5 -14 0 -19 -2 -12 -5z"/>
<path d="M3424 1885 c11 -8 22 -12 25 -9 6 6 -19 24 -34 24 -5 -1 -1 -7 9 -15z"/>
<path d="M5817 1683 c-10 -9 -9 -51 2 -57 4 -3 16 3 26 14 15 16 15 22 5 35
-14 16 -23 19 -33 8z"/>
<path d="M4800 1602 c0 -5 6 -17 14 -27 12 -16 16 -17 30 -6 12 10 14 17 5 27
-12 15 -49 19 -49 6z"/>
<path d="M5954 1529 c-11 -16 -29 -69 -39 -116 -3 -17 -13 -37 -21 -44 -8 -6
-14 -25 -14 -42 0 -30 1 -30 14 -12 7 11 16 32 20 48 3 15 11 27 16 27 6 0 10
7 10 16 0 8 7 37 16 64 17 52 16 83 -2 59z"/>
<path d="M5201 1494 c0 -11 3 -14 6 -6 3 7 2 16 -1 19 -3 4 -6 -2 -5 -13z"/>
<path d="M5083 1483 c-13 -2 -24 -12 -24 -21 -2 -23 -4 -32 -14 -66 -7 -27 -9
-28 -21 -11 -16 22 -18 39 -4 30 6 -3 10 0 10 9 0 8 -7 13 -17 11 -10 -2 -21
-4 -24 -4 -3 -1 -9 -24 -12 -51 -3 -28 -10 -56 -14 -63 -4 -6 -8 -23 -9 -37
-1 -24 0 -25 52 -22 35 3 54 0 54 -7 0 -6 13 -11 28 -11 22 0 30 7 40 33 10
25 14 29 22 17 17 -27 25 2 26 96 2 91 1 95 -19 92 -12 -2 -27 -14 -33 -27
l-12 -23 -7 22 c-5 15 -2 26 6 31 14 9 10 9 -28 2z m37 -200 c0 -20 -23 -11
-26 9 -1 11 3 15 12 11 8 -3 14 -12 14 -20z"/>
<path d="M5715 1470 c-3 -5 -1 -10 4 -10 6 0 11 5 11 10 0 6 -2 10 -4 10 -3 0
-8 -4 -11 -10z"/>
<path d="M5852 1280 c-14 -23 -16 -50 -3 -50 7 0 23 60 17 67 -1 1 -7 -7 -14
-17z"/>
<path d="M5465 1270 c-3 -5 1 -10 9 -10 9 0 16 5 16 10 0 6 -4 10 -9 10 -6 0
-13 -4 -16 -10z"/>
<path d="M5040 1223 c0 -8 14 -13 40 -13 22 0 43 0 48 0 4 0 7 5 7 11 0 6 -21
12 -47 13 -34 1 -48 -2 -48 -11z"/>
<path d="M5070 1180 c0 -5 5 -10 10 -10 6 0 10 5 10 10 0 6 -4 10 -10 10 -5 0
-10 -4 -10 -10z"/>
<path d="M5774 1112 c-6 -4 -15 -18 -19 -30 -6 -19 -4 -23 10 -20 11 2 19 14
21 31 1 15 2 27 1 27 -1 0 -7 -4 -13 -8z"/>
<path d="M5727 1028 c-9 -31 -2 -33 11 -3 6 14 8 25 3 25 -5 0 -11 -10 -14
-22z"/>
<path d="M4465 720 c-8 -13 5 -13 25 0 13 8 13 10 -2 10 -9 0 -20 -4 -23 -10z"/>
<path d="M4378 699 c15 -6 30 -5 40 1 13 7 8 9 -23 9 -35 0 -37 -1 -17 -10z"/>
<path d="M4337 308 c8 -72 13 -73 13 -5 0 31 -4 57 -10 57 -5 0 -7 -22 -3 -52z"/>
<path d="M3750 270 c0 -5 4 -10 9 -10 6 0 13 5 16 10 3 6 -1 10 -9 10 -9 0
-16 -4 -16 -10z"/>
<path d="M3837 187 c-32 -26 -48 -32 -102 -35 -36 -2 -65 -8 -65 -13 0 -14 81
-31 119 -24 55 10 146 106 99 104 -7 0 -30 -14 -51 -32z"/>
<path d="M4341 134 c0 -11 3 -14 6 -6 3 7 2 16 -1 19 -3 4 -6 -2 -5 -13z"/>
</g>
</svg>
