<?xml version="1.0" standalone="no"?>
<!DOCTYPE svg PUBLIC "-//W3C//DTD SVG 20010904//EN"
 "http://www.w3.org/TR/2001/REC-SVG-20010904/DTD/svg10.dtd">
<svg version="1.0" xmlns="http://www.w3.org/2000/svg"
 width="1362.000000pt" height="639.000000pt" viewBox="0 0 1362.000000 639.000000"
 preserveAspectRatio="xMidYMid meet">

<g transform="translate(0.000000,639.000000) scale(0.100000,-0.100000)"
fill="#000000" stroke="none">
<path d="M0 6130 l0 -240 6810 0 6810 0 0 240 0 240 -6810 0 -6810 0 0 -240z
m4770 50 c0 -5 -7 -10 -15 -10 -8 0 -15 5 -15 10 0 6 7 10 15 10 8 0 15 -4 15
-10z m4310 -50 c0 -33 -4 -60 -10 -60 -6 0 -10 27 -10 60 0 33 4 60 10 60 6 0
10 -27 10 -60z m-8830 25 c0 -20 5 -25 25 -25 20 0 25 5 25 25 0 14 5 25 10
25 6 0 10 -25 10 -55 0 -30 -4 -55 -10 -55 -5 0 -10 11 -10 25 0 20 -5 25 -25
25 -20 0 -25 -5 -25 -25 0 -14 -4 -25 -10 -25 -5 0 -10 25 -10 55 0 30 5 55
10 55 6 0 10 -11 10 -25z m4375 8 c13 -12 15 -26 11 -54 -4 -25 -2 -39 7 -43
6 -3 -10 -3 -38 1 -62 7 -75 17 -75 59 0 50 59 74 95 37z m4173 -10 c2 -13 -2
-23 -8 -23 -6 0 -3 -12 7 -27 l18 -27 5 34 c4 31 8 35 35 35 20 0 31 -5 33
-17 3 -14 -3 -18 -27 -18 -24 0 -29 -4 -24 -16 4 -11 13 -14 30 -9 15 3 22 2
18 -4 -3 -6 -25 -10 -49 -9 -36 0 -46 5 -55 24 -14 31 -31 31 -31 -1 0 -14 -4
-25 -10 -25 -5 0 -10 25 -10 56 l0 55 33 -3 c24 -2 33 -8 35 -25z m328 2 c9
-8 11 -15 5 -15 -15 0 -14 -43 1 -58 9 -9 8 -12 -5 -12 -15 0 -24 19 -28 60
-4 42 3 49 27 25z m-8711 -45 c0 -33 -2 -35 -35 -35 -31 0 -35 3 -38 29 -4 33
12 47 48 44 21 -3 25 -8 25 -38z m143 -2 c2 -21 -1 -38 -7 -38 -5 0 -11 15
-13 33 -2 17 -7 32 -13 32 -5 0 -11 -15 -13 -32 -2 -18 -7 -33 -12 -33 -5 0
-10 15 -12 33 -2 17 -7 32 -13 32 -5 0 -11 -15 -13 -32 -5 -47 -22 -41 -22 7
l0 40 58 -2 57 -3 3 -37z m80 30 c20 -20 14 -28 -19 -28 -20 0 -29 -4 -26 -12
2 -7 14 -13 26 -12 11 0 21 -3 21 -8 0 -5 -15 -8 -32 -6 -26 2 -34 8 -36 26
-6 42 37 69 66 40z m4034 -20 c4 -46 28 -49 28 -4 0 25 4 36 15 36 11 0 15
-11 15 -41 l0 -40 -37 3 c-36 3 -38 5 -41 41 -2 20 1 37 7 37 5 0 11 -14 13
-32z m88 -8 c0 -22 -4 -40 -10 -40 -5 0 -10 18 -10 40 0 22 5 40 10 40 6 0 10
-18 10 -40z m65 6 l-26 -35 28 -4 c20 -3 15 -4 -16 -6 l-43 -1 26 34 26 35
-23 4 c-13 3 -7 5 16 6 l38 1 -26 -34z m4135 23 c0 -6 -9 -8 -20 -4 -27 8 -26
-9 2 -27 12 -8 18 -19 14 -26 -8 -14 -56 -16 -56 -3 0 5 9 7 20 4 11 -3 20 -1
20 5 0 6 -9 14 -20 17 -20 6 -26 25 -13 38 10 11 53 8 53 -4z m30 -25 c0 -45
24 -42 28 4 5 46 22 39 22 -9 0 -39 -1 -40 -32 -37 -30 3 -33 6 -36 41 -2 21
1 37 7 37 6 0 11 -16 11 -36z m220 25 c0 -6 -9 -8 -20 -4 -11 3 -20 2 -20 -4
0 -5 9 -13 21 -16 29 -10 20 -39 -14 -43 -15 -2 -27 1 -27 6 0 6 9 8 20 5 26
-7 25 4 -2 26 -12 10 -18 23 -14 29 9 15 56 16 56 1z"/>
<path d="M4560 6156 c-15 -19 -9 -56 12 -69 34 -22 66 41 36 71 -16 16 -33 15
-48 -2z"/>
<path d="M8750 6150 c0 -23 25 -27 33 -6 7 16 -1 26 -20 26 -7 0 -13 -9 -13
-20z"/>
<path d="M8840 6130 c0 -5 7 -10 15 -10 8 0 15 5 15 10 0 6 -7 10 -15 10 -8 0
-15 -4 -15 -10z"/>
<path d="M364 6126 c-8 -22 3 -49 19 -43 6 2 12 14 12 27 0 27 -22 39 -31 16z"/>
<path d="M595 6130 c-3 -5 1 -10 9 -10 9 0 16 5 16 10 0 6 -4 10 -9 10 -6 0
-13 -4 -16 -10z"/>
<path d="M5520 5190 c0 -33 4 -60 10 -60 6 0 10 27 10 60 0 33 -4 60 -10 60
-6 0 -10 -27 -10 -60z"/>
<path d="M6730 5240 c0 -5 5 -10 10 -10 6 0 10 5 10 10 0 6 -4 10 -10 10 -5 0
-10 -4 -10 -10z"/>
<path d="M5280 5233 c1 -23 29 -98 38 -101 6 -2 16 16 23 40 l12 43 11 -39 c6
-22 16 -41 22 -43 6 -2 17 21 26 52 8 30 12 55 7 55 -5 0 -13 -19 -20 -42
l-12 -43 -11 39 c-15 51 -32 56 -40 11 -9 -45 -22 -45 -30 0 -4 19 -11 35 -16
35 -6 0 -10 -3 -10 -7z"/>
<path d="M6216 5224 c-26 -25 -20 -72 9 -86 41 -18 75 3 75 46 0 51 -50 75
-84 40z m69 -23 c9 -28 -5 -51 -31 -51 -29 0 -46 28 -33 52 13 24 56 23 64 -1z"/>
<path d="M6538 5229 c-21 -12 -24 -69 -6 -87 7 -7 22 -12 34 -12 13 0 26 -4
29 -10 3 -5 13 -10 22 -10 12 0 13 3 5 13 -6 7 -9 29 -6 48 9 55 -32 85 -78
58z m57 -44 c0 -25 -4 -30 -24 -30 -32 0 -49 28 -31 50 7 9 23 15 34 13 16 -2
21 -10 21 -33z"/>
<path d="M6903 5185 c-12 -30 -17 -55 -12 -55 4 0 11 5 14 10 9 14 52 12 58
-2 2 -7 8 -10 12 -6 10 10 -26 108 -41 108 -6 0 -20 -25 -31 -55z m46 -7 c1
-5 -6 -8 -14 -8 -16 0 -19 9 -8 36 6 16 7 16 14 -2 4 -10 8 -22 8 -26z"/>
<path d="M7203 5200 c0 -25 2 -35 4 -22 2 12 2 32 0 45 -2 12 -4 2 -4 -23z"/>
<path d="M7253 5200 c0 -25 2 -35 4 -22 2 12 2 32 0 45 -2 12 -4 2 -4 -23z"/>
<path d="M7296 5203 c9 -52 14 -54 14 -5 0 23 -5 42 -10 42 -7 0 -8 -14 -4
-37z"/>
<path d="M6008 5218 c-2 -7 -2 -29 2 -48 3 -24 11 -36 25 -38 16 -3 18 -1 8 9
-16 16 -17 59 -2 59 6 0 4 7 -5 15 -18 18 -23 19 -28 3z"/>
<path d="M5439 5186 c-9 -20 -9 -29 1 -41 14 -17 60 -21 60 -4 0 5 -4 8 -9 5
-12 -8 -41 3 -41 15 0 5 12 9 26 9 19 0 25 5 22 18 -5 28 -46 27 -59 -2z m46
4 c3 -5 -3 -10 -15 -10 -12 0 -18 5 -15 10 3 6 10 10 15 10 5 0 12 -4 15 -10z"/>
<path d="M5572 5198 c-17 -17 -15 -55 4 -62 23 -9 44 -7 44 3 0 5 -8 8 -17 7
-13 -1 -18 6 -18 24 0 18 5 25 18 24 9 -1 17 2 17 7 0 13 -34 11 -48 -3z"/>
<path d="M5652 5201 c-8 -5 -12 -21 -10 -37 2 -23 9 -30 30 -32 19 -2 30 3 38
17 21 40 -20 77 -58 52z m48 -31 c0 -24 -25 -33 -40 -14 -10 11 -10 17 0 28
15 19 40 10 40 -14z"/>
<path d="M5741 5166 c1 -28 3 -33 6 -16 11 57 42 61 44 7 2 -29 2 -30 6 -5 2
14 11 32 18 38 16 13 20 8 29 -40 2 -14 3 -7 3 15 l-2 40 -52 1 -53 1 1 -41z"/>
<path d="M5882 5198 c-15 -15 -15 -41 0 -56 14 -14 44 -16 52 -4 3 5 -4 8 -16
8 -12 -1 -23 5 -25 12 -3 7 5 12 22 12 20 0 26 4 23 18 -4 21 -39 27 -56 10z
m43 -8 c3 -5 -3 -10 -15 -10 -12 0 -18 5 -15 10 3 6 10 10 15 10 5 0 12 -4 15
-10z"/>
<path d="M6070 5195 c-26 -32 13 -81 48 -59 34 22 22 74 -18 74 -10 0 -23 -7
-30 -15z m45 -25 c0 -13 -6 -25 -12 -27 -16 -6 -27 21 -19 43 9 23 31 11 31
-16z"/>
<path d="M6322 5173 c3 -35 6 -38 36 -40 31 -1 32 0 32 38 0 47 -17 52 -22 7
-2 -18 -7 -33 -13 -33 -5 0 -11 15 -13 33 -2 17 -8 32 -13 32 -6 0 -9 -17 -7
-37z"/>
<path d="M6421 5165 l1 -40 8 34 c4 18 14 37 21 42 10 6 7 8 -9 6 -19 -1 -22
-7 -21 -42z"/>
<path d="M6642 5173 c3 -35 6 -38 36 -40 31 -1 32 0 32 38 0 47 -17 52 -22 7
-2 -18 -7 -33 -13 -33 -5 0 -11 15 -13 33 -2 17 -8 32 -13 32 -6 0 -9 -17 -7
-37z"/>
<path d="M6730 5170 c0 -22 5 -40 10 -40 6 0 10 18 10 40 0 22 -4 40 -10 40
-5 0 -10 -18 -10 -40z"/>
<path d="M6788 5201 l24 -6 -21 -27 c-28 -35 -27 -38 12 -37 17 1 24 3 15 6
-22 5 -22 13 -3 39 21 28 18 34 -17 33 -29 -1 -30 -2 -10 -8z"/>
<path d="M7000 5149 c0 -33 4 -59 10 -59 6 0 10 10 10 23 0 18 5 23 21 23 12
-1 26 7 33 17 16 25 -4 52 -43 54 l-31 1 0 -59z m58 24 c4 -24 -26 -40 -34
-18 -8 21 3 47 19 43 6 -3 13 -14 15 -25z"/>
<path d="M7101 5145 c1 -33 4 -50 6 -38 3 15 13 23 31 25 24 3 27 7 27 38 0
33 -2 35 -32 35 l-33 1 1 -61z m48 9 c-14 -14 -17 -14 -29 0 -10 13 -10 19 0
32 12 14 15 14 29 0 14 -15 14 -17 0 -32z"/>
<path d="M7290 5140 c0 -5 5 -10 10 -10 6 0 10 5 10 10 0 6 -4 10 -10 10 -5 0
-10 -4 -10 -10z"/>
<path d="M6292 4850 c0 -30 2 -47 5 -37 5 18 5 18 26 0 22 -18 22 -18 5 3 -17
19 -17 21 -1 37 10 9 12 17 6 17 -6 0 -14 -8 -19 -17 -6 -14 -9 -11 -14 17 -6
30 -7 28 -8 -20z"/>
<path d="M6593 4850 c0 -30 2 -43 4 -27 2 15 2 39 0 55 -2 15 -4 2 -4 -28z"/>
<path d="M6740 4882 c0 -13 -7 -18 -22 -18 -19 1 -23 -4 -23 -29 0 -26 4 -30
28 -31 26 -1 27 1 27 47 0 27 -2 49 -5 49 -3 0 -5 -8 -5 -18z m-5 -47 c0 -11
-8 -21 -17 -23 -14 -3 -18 3 -18 23 0 20 4 26 18 23 9 -2 17 -12 17 -23z"/>
<path d="M7130 4881 c0 -14 -5 -18 -20 -14 -14 4 -21 -1 -25 -20 -9 -34 0 -47
30 -45 23 2 25 7 25 50 0 26 -2 48 -5 48 -3 0 -5 -9 -5 -19z m-3 -37 c8 -21
-13 -42 -28 -27 -13 13 -5 43 11 43 6 0 13 -7 17 -16z"/>
<path d="M7573 4850 c0 -30 2 -43 4 -27 2 15 2 39 0 55 -2 15 -4 2 -4 -28z"/>
<path d="M7602 4883 c-4 -10 -5 -34 -1 -53 l6 -35 2 33 c0 18 6 32 14 32 8 0
7 4 -3 10 -13 9 -13 11 0 20 9 6 11 10 3 10 -7 0 -16 -8 -21 -17z"/>
<path d="M7843 4850 c0 -30 2 -44 4 -30 6 35 22 48 33 30 8 -13 10 -12 10 4 0
13 -5 17 -19 13 -15 -3 -21 1 -24 17 -2 11 -4 -4 -4 -34z"/>
<path d="M5281 4889 c-1 -4 7 -26 18 -49 18 -41 19 -41 23 -13 3 15 8 37 12
48 5 15 4 14 -5 -2 -7 -13 -15 -23 -19 -23 -4 0 -12 10 -18 23 -6 12 -11 19
-11 16z"/>
<path d="M5758 4877 c-7 -21 6 -70 20 -73 7 -1 8 0 2 3 -12 6 -13 50 -1 55 5
2 3 8 -4 15 -10 9 -14 9 -17 0z"/>
<path d="M5928 4880 c-5 -17 3 -80 11 -80 7 0 6 79 -2 86 -3 3 -7 0 -9 -6z"/>
<path d="M7798 4877 c-7 -21 6 -70 20 -73 7 -1 8 0 2 3 -12 6 -13 50 -1 55 5
2 3 8 -4 15 -10 9 -14 9 -17 0z"/>
<path d="M5344 4845 c-8 -31 6 -48 32 -43 29 5 26 62 -3 66 -17 3 -24 -3 -29
-23z m46 -10 c0 -25 -23 -35 -35 -15 -10 16 2 40 20 40 9 0 15 -9 15 -25z"/>
<path d="M5423 4838 c1 -26 7 -34 25 -36 20 -3 22 1 20 35 -1 37 -1 37 -5 6
-5 -42 -30 -43 -37 -3 -6 30 -6 30 -3 -2z"/>
<path d="M5529 4854 c-16 -19 -1 -48 27 -51 15 -2 14 -1 -3 7 -13 5 -23 16
-23 25 0 9 10 20 23 25 15 6 17 9 6 9 -9 1 -22 -6 -30 -15z"/>
<path d="M5603 4864 c23 -7 22 -20 -4 -27 -27 -7 -20 -31 10 -35 20 -3 22 0
19 30 -2 24 -8 33 -23 35 -16 1 -16 1 -2 -3z m17 -44 c0 -5 -7 -10 -15 -10 -8
0 -15 5 -15 10 0 6 7 10 15 10 8 0 15 -4 15 -10z"/>
<path d="M5651 4830 c1 -27 3 -29 6 -10 6 35 22 48 33 30 8 -13 10 -12 10 2 0
13 -7 17 -25 16 -22 -2 -25 -7 -24 -38z"/>
<path d="M5804 4856 c-11 -28 0 -51 26 -53 22 -1 22 -1 3 4 -29 6 -30 23 -2
23 14 0 19 5 17 17 -4 23 -36 29 -44 9z m36 -6 c0 -5 -7 -10 -15 -10 -8 0 -15
5 -15 10 0 6 7 10 15 10 8 0 15 -4 15 -10z"/>
<path d="M5870 4855 c0 -9 7 -18 15 -21 20 -8 19 -21 -2 -27 -16 -4 -16 -5 -1
-6 26 -2 33 20 12 36 -16 12 -17 15 -4 23 13 8 12 10 -2 10 -10 0 -18 -7 -18
-15z"/>
<path d="M6002 4840 c14 -42 24 -45 37 -8 15 42 12 50 -4 13 l-13 -30 -11 28
c-14 37 -23 35 -9 -3z"/>
<path d="M6064 4845 c-8 -31 6 -48 32 -43 29 5 26 62 -3 66 -17 3 -24 -3 -29
-23z m46 -10 c0 -25 -23 -35 -35 -15 -10 16 2 40 20 40 9 0 15 -9 15 -25z"/>
<path d="M6143 4838 c1 -26 7 -34 25 -36 20 -3 22 1 20 35 -1 37 -1 37 -5 6
-5 -42 -30 -43 -37 -3 -6 30 -6 30 -3 -2z"/>
<path d="M6211 4831 c1 -28 3 -30 6 -11 3 14 9 30 14 36 5 7 3 11 -6 11 -11 0
-15 -11 -14 -36z"/>
<path d="M6351 4833 c1 -36 2 -37 8 -8 3 17 13 30 21 30 8 0 18 -13 22 -30 6
-29 6 -29 5 5 -2 30 -6 35 -29 38 -26 3 -28 1 -27 -35z"/>
<path d="M6430 4855 c-10 -12 -11 -21 -3 -33 13 -21 45 -22 50 -2 4 12 3 13
-5 1 -12 -17 -42 -7 -42 14 0 21 30 31 42 14 8 -12 9 -11 5 1 -5 21 -31 24
-47 5z"/>
<path d="M6502 4838 c15 -44 16 -45 27 -17 l10 24 7 -22 c7 -24 24 -22 24 3 0
8 -4 13 -9 10 -5 -3 -12 4 -15 17 l-7 22 -10 -25 -11 -25 -9 23 c-13 34 -19
26 -7 -10z"/>
<path d="M6630 4855 c-17 -21 -3 -55 23 -54 21 0 21 1 -3 12 l-25 11 28 4 c21
2 27 8 23 19 -3 8 -6 17 -6 19 0 10 -29 3 -40 -11z m35 -5 c3 -5 -3 -10 -15
-10 -12 0 -18 5 -15 10 3 6 10 10 15 10 5 0 12 -4 15 -10z"/>
<path d="M6775 4859 c-4 -6 -4 -13 -1 -16 3 -4 6 -1 6 6 0 8 8 11 20 8 11 -3
18 -1 14 4 -7 12 -31 11 -39 -2z"/>
<path d="M6844 4846 c-8 -32 2 -46 29 -45 21 0 21 1 -3 11 l-25 11 30 7 30 8
-28 1 c-17 1 -26 5 -22 12 4 6 14 8 22 5 8 -3 11 -1 8 4 -11 18 -35 10 -41
-14z"/>
<path d="M6963 4864 c23 -7 22 -20 -4 -27 -27 -7 -20 -31 10 -35 20 -3 22 0
19 30 -2 24 -8 33 -23 35 -16 1 -16 1 -2 -3z m17 -44 c0 -5 -7 -10 -15 -10 -8
0 -15 5 -15 10 0 6 7 10 15 10 8 0 15 -4 15 -10z"/>
<path d="M7011 4830 c1 -27 3 -29 6 -10 6 35 22 48 33 30 8 -13 10 -12 10 2 0
13 -7 17 -25 16 -22 -2 -25 -7 -24 -38z"/>
<path d="M7190 4863 c0 -7 5 -23 11 -37 9 -20 9 -29 -1 -41 -7 -8 -8 -15 -3
-15 11 0 48 88 40 96 -2 3 -8 -8 -12 -23 l-8 -28 -13 30 c-7 17 -13 25 -14 18z"/>
<path d="M7260 4855 c-10 -12 -11 -21 -3 -33 13 -21 45 -22 50 -2 4 12 3 13
-5 1 -12 -17 -42 -7 -42 14 0 21 30 31 42 14 8 -12 9 -11 5 1 -5 21 -31 24
-47 5z"/>
<path d="M7333 4838 c1 -26 7 -34 25 -36 20 -3 22 1 20 35 -1 37 -1 37 -5 6
-5 -42 -30 -43 -37 -3 -6 30 -6 30 -3 -2z"/>
<path d="M7401 4832 c1 -27 3 -31 6 -12 7 38 19 44 42 21 25 -25 26 -28 4 -34
-14 -4 -12 -5 5 -6 25 -1 31 26 7 35 -20 8 -19 22 3 26 9 3 -2 5 -25 6 l-43 1
1 -37z"/>
<path d="M7504 4856 c-11 -28 0 -51 26 -53 22 -1 22 -1 3 4 -29 6 -30 23 -2
23 14 0 19 5 17 17 -4 23 -36 29 -44 9z m36 -6 c0 -5 -7 -10 -15 -10 -8 0 -15
5 -15 10 0 6 7 10 15 10 8 0 15 -4 15 -10z"/>
<path d="M7671 4854 c0 -11 3 -14 6 -6 3 7 2 16 -1 19 -3 4 -6 -2 -5 -13z"/>
<path d="M7706 4861 c-4 -7 -5 -15 -2 -18 9 -9 19 4 14 18 -4 11 -6 11 -12 0z"/>
<path d="M7773 4835 c0 -22 2 -30 4 -17 2 12 2 30 0 40 -3 9 -5 -1 -4 -23z"/>
<path d="M7957 4864 c-4 -4 -7 -12 -7 -18 0 -6 4 -5 9 3 11 17 41 7 41 -14 0
-21 -30 -31 -41 -14 -6 10 -9 11 -9 1 0 -21 30 -26 48 -8 13 13 14 20 6 34
-12 19 -36 27 -47 16z"/>
<path d="M8021 4850 c-1 -34 11 -49 37 -47 18 1 22 7 21 37 l-1 35 -7 -30 c-3
-17 -13 -30 -21 -30 -8 0 -18 13 -21 30 -6 27 -7 27 -8 5z"/>
<path d="M8101 4833 c2 -35 2 -35 6 -8 3 16 10 33 16 37 8 5 6 8 -5 8 -14 0
-18 -8 -17 -37z"/>
<path d="M7741 4844 c0 -11 3 -14 6 -6 3 7 2 16 -1 19 -3 4 -6 -2 -5 -13z"/>
<path d="M6771 4822 c-1 -8 8 -16 19 -19 27 -7 25 -20 -2 -26 -21 -5 -20 -5 2
-4 20 2 25 8 26 32 1 17 0 24 -3 18 -2 -7 -11 -13 -18 -13 -7 0 -16 6 -18 13
-4 9 -6 9 -6 -1z"/>
<path d="M7680 4816 c0 -9 5 -16 10 -16 6 0 10 4 10 9 0 6 -4 13 -10 16 -5 3
-10 -1 -10 -9z"/>
<path d="M7720 4821 c0 -5 5 -13 10 -16 6 -3 10 -2 10 4 0 5 -4 13 -10 16 -5
3 -10 2 -10 -4z"/>
<path d="M6000 4780 c-9 -6 -10 -10 -3 -10 6 0 15 5 18 10 8 12 4 12 -15 0z"/>
<path d="M5683 4650 c0 -30 2 -43 4 -27 2 15 2 39 0 55 -2 15 -4 2 -4 -28z"/>
<path d="M5289 4669 c-15 -28 3 -69 30 -69 11 0 25 -2 33 -3 7 -2 10 -2 6 0
-4 3 -2 15 4 27 14 32 -5 66 -37 66 -15 0 -29 -9 -36 -21z m65 -11 c8 -14 7
-21 -6 -34 -30 -30 -75 9 -48 42 16 18 39 15 54 -8z"/>
<path d="M5611 4643 c1 -26 3 -41 6 -32 2 10 13 19 24 22 29 8 22 51 -8 55
-21 3 -23 0 -22 -45z m39 17 c0 -11 -7 -20 -15 -20 -8 0 -15 9 -15 20 0 11 7
20 15 20 8 0 15 -9 15 -20z"/>
<path d="M6002 4648 c-2 -44 0 -48 21 -47 16 1 17 3 5 6 -12 3 -18 17 -21 46
l-4 42 -1 -47z"/>
<path d="M6348 4680 c-5 -17 3 -80 11 -80 7 0 6 79 -2 86 -3 3 -7 0 -9 -6z"/>
<path d="M6638 4677 c-7 -21 6 -70 20 -73 7 -1 8 0 2 3 -12 6 -13 50 -1 55 5
2 3 8 -4 15 -10 9 -14 9 -17 0z"/>
<path d="M6778 4680 c-5 -17 3 -80 11 -80 7 0 6 79 -2 86 -3 3 -7 0 -9 -6z"/>
<path d="M6930 4682 c0 -7 -11 -12 -25 -12 -22 0 -25 -4 -24 -37 1 -37 2 -37
8 -8 9 42 41 47 41 6 0 -17 3 -31 8 -31 8 0 7 78 -2 87 -3 4 -6 1 -6 -5z"/>
<path d="M5383 4638 c1 -26 7 -34 25 -36 20 -3 22 1 20 35 -1 37 -1 37 -5 6
-5 -42 -30 -43 -37 -3 -6 30 -6 30 -3 -2z"/>
<path d="M5453 4635 c0 -22 2 -30 4 -17 2 12 2 30 0 40 -3 9 -5 -1 -4 -23z"/>
<path d="M5493 4663 c20 -5 22 -14 5 -32 -10 -11 -10 -12 -1 -7 7 4 18 16 23
27 9 17 7 19 -17 18 -17 -1 -21 -3 -10 -6z"/>
<path d="M5717 4664 c-16 -16 -6 -34 19 -34 19 0 25 5 22 17 -3 19 -29 29 -41
17z m33 -14 c0 -5 -7 -10 -15 -10 -8 0 -15 5 -15 10 0 6 7 10 15 10 8 0 15 -4
15 -10z"/>
<path d="M5793 4664 c23 -7 22 -20 -4 -27 -27 -7 -20 -31 10 -35 20 -3 22 0
19 30 -2 24 -8 33 -23 35 -16 1 -16 1 -2 -3z m17 -44 c0 -5 -7 -10 -15 -10 -8
0 -15 5 -15 10 0 6 7 10 15 10 8 0 15 -4 15 -10z"/>
<path d="M5844 4658 c-4 -6 0 -16 9 -23 22 -16 21 -22 0 -28 -16 -4 -16 -5 -1
-6 24 -2 34 20 15 34 -22 16 -21 22 1 28 15 4 15 5 0 6 -9 0 -20 -4 -24 -11z"/>
<path d="M5894 4646 c-8 -32 2 -46 29 -45 21 0 21 1 -3 11 l-25 11 30 7 30 8
-28 1 c-17 1 -26 5 -22 12 4 6 14 8 22 5 8 -3 11 -1 8 4 -11 18 -35 10 -41
-14z"/>
<path d="M6060 4655 c-10 -12 -11 -21 -3 -33 13 -21 45 -22 50 -2 4 12 3 13
-5 1 -12 -17 -42 -7 -42 14 0 21 30 31 42 14 8 -12 9 -11 5 1 -5 21 -31 24
-47 5z"/>
<path d="M6134 4656 c-11 -30 1 -51 29 -52 24 -1 27 3 27 30 0 27 -4 32 -25
34 -15 1 -28 -4 -31 -12z m41 -21 c0 -11 -8 -21 -17 -23 -14 -3 -18 3 -18 23
0 20 4 26 18 23 9 -2 17 -12 17 -23z"/>
<path d="M6213 4635 c0 -22 2 -30 4 -17 2 12 2 30 0 40 -3 9 -5 -1 -4 -23z"/>
<path d="M6241 4631 c1 -35 2 -35 8 -7 9 42 29 44 34 4 l5 -33 -2 35 c-1 29
-5 35 -23 36 -20 1 -23 -3 -22 -35z"/>
<path d="M6397 4664 c-4 -4 -7 -12 -7 -18 0 -6 4 -5 9 3 11 17 41 7 41 -14 0
-21 -30 -31 -41 -14 -6 10 -9 11 -9 1 0 -21 30 -26 48 -8 13 13 14 20 6 34
-12 19 -36 27 -47 16z"/>
<path d="M6505 4659 c-4 -6 -4 -13 -1 -16 3 -4 6 -1 6 6 0 8 8 11 20 8 11 -3
18 -1 14 4 -7 12 -31 11 -39 -2z"/>
<path d="M6574 4646 c-8 -32 2 -46 29 -45 21 0 21 1 -3 11 l-25 11 30 7 30 8
-28 1 c-17 1 -26 5 -22 12 4 6 14 8 22 5 8 -3 11 -1 8 4 -11 18 -35 10 -41
-14z"/>
<path d="M6724 4658 c-4 -6 0 -16 9 -23 22 -16 21 -22 0 -28 -16 -4 -16 -5 -1
-6 24 -2 34 20 15 34 -22 16 -21 22 1 28 15 4 15 5 0 6 -9 0 -20 -4 -24 -11z"/>
<path d="M6820 4662 c0 -4 9 -8 20 -8 11 0 20 4 20 8 0 4 -9 8 -20 8 -11 0
-20 -4 -20 -8z"/>
<path d="M6974 4656 c-11 -28 0 -51 26 -53 22 -1 22 -1 3 4 -29 6 -30 23 -2
23 14 0 19 5 17 17 -4 23 -36 29 -44 9z m36 -6 c0 -5 -7 -10 -15 -10 -8 0 -15
5 -15 10 0 6 7 10 15 10 8 0 15 -4 15 -10z"/>
<path d="M7045 4659 c-4 -6 -4 -13 -1 -16 3 -4 6 -1 6 6 0 8 8 11 20 8 11 -3
18 -1 14 4 -7 12 -31 11 -39 -2z"/>
<path d="M6821 4627 c-6 -8 -8 -17 -4 -20 10 -10 43 -8 43 2 0 5 -9 7 -20 4
-27 -7 -25 5 3 17 15 6 17 9 6 9 -9 1 -22 -5 -28 -12z"/>
<path d="M6501 4622 c-1 -8 8 -16 19 -19 27 -7 25 -20 -2 -26 -21 -5 -20 -5 2
-4 20 2 25 8 26 32 1 17 0 24 -3 18 -2 -7 -11 -13 -18 -13 -7 0 -16 6 -18 13
-4 9 -6 9 -6 -1z"/>
<path d="M7044 4618 c2 -7 11 -13 21 -13 10 0 19 6 21 13 1 7 0 8 -3 2 -2 -5
-11 -10 -18 -10 -7 0 -16 5 -18 10 -3 6 -4 5 -3 -2z"/>
<path d="M5718 4608 c6 -6 18 -8 28 -6 14 3 12 5 -9 10 -19 3 -25 2 -19 -4z"/>
<path d="M5493 4603 c9 -2 23 -2 30 0 6 3 -1 5 -18 5 -16 0 -22 -2 -12 -5z"/>
<path d="M6150 4580 c-23 -7 -23 -8 -3 -9 12 -1 25 4 28 9 3 6 5 10 3 9 -2 -1
-14 -5 -28 -9z"/>
<path d="M5286 4384 c-23 -23 -23 -265 0 -288 14 -14 166 -16 1524 -16 1358 0
1510 2 1524 16 23 23 23 265 0 288 -14 14 -166 16 -1524 16 -1358 0 -1510 -2
-1524 -16z m1604 -104 c0 -5 -7 -10 -15 -10 -8 0 -15 5 -15 10 0 6 7 10 15 10
8 0 15 -4 15 -10z m-190 -35 c0 -40 15 -47 24 -11 5 22 11 24 66 24 l60 0 0
-39 c0 -36 -2 -39 -27 -39 -22 0 -25 2 -13 10 19 12 11 13 -77 10 l-63 -2 0
41 c0 30 4 41 15 41 10 0 15 -11 15 -35z m250 -15 c0 -35 -19 -41 -21 -7 l-2
22 -4 -22 c-3 -18 -11 -23 -34 -23 -26 0 -29 3 -29 30 0 29 2 30 45 30 43 0
45 -1 45 -30z"/>
<path d="M6750 4230 c0 -5 5 -10 10 -10 6 0 10 5 10 10 0 6 -4 10 -10 10 -5 0
-10 -4 -10 -10z"/>
</g>
</svg>
